<svg width="17" height="16" viewBox="0 0 17 16" fill="none" xmlns="http://www.w3.org/2000/svg">
<g id="github">
<path id="Vector" d="M8.66669 1.49756C7.08367 1.49762 5.55233 2.06097 4.34666 3.08679C3.141 4.11261 2.33969 5.53397 2.08611 7.09655C1.83253 8.65912 2.14323 10.2609 2.96262 11.6154C3.78201 12.9698 5.05661 13.9885 6.55836 14.4892C6.8917 14.5476 7.0167 14.3476 7.0167 14.1726C7.0167 14.0142 7.00836 13.4892 7.00836 12.9309C5.33335 13.2392 4.90002 12.5226 4.76669 12.1476C4.61874 11.7829 4.3842 11.4597 4.08335 11.2059C3.85002 11.0809 3.51668 10.7726 4.07501 10.7642C4.2882 10.7874 4.49268 10.8616 4.67111 10.9805C4.84953 11.0995 4.99666 11.2597 5.10002 11.4476C5.1912 11.6114 5.3138 11.7555 5.46081 11.8719C5.60782 11.9882 5.77634 12.0744 5.95671 12.1255C6.13708 12.1766 6.32576 12.1916 6.51194 12.1696C6.69812 12.1477 6.87813 12.0892 7.04167 11.9976C7.07053 11.6586 7.22158 11.3418 7.46669 11.1059C5.98335 10.9392 4.43335 10.3642 4.43335 7.81424C4.42398 7.15168 4.66848 6.51063 5.11668 6.02258C4.91287 5.44672 4.93672 4.81477 5.18335 4.25591C5.18335 4.25591 5.74166 4.0809 7.01668 4.93924C8.10754 4.63923 9.25916 4.63923 10.35 4.93924C11.625 4.07258 12.1834 4.25591 12.1834 4.25591C12.43 4.81476 12.4539 5.44673 12.25 6.02258C12.6996 6.50979 12.9443 7.1514 12.9334 7.81424C12.9334 10.3726 11.375 10.9392 9.89169 11.1059C10.0508 11.2672 10.1733 11.4608 10.251 11.6736C10.3286 11.8864 10.3596 12.1134 10.3417 12.3392C10.3417 13.2309 10.3333 13.9476 10.3333 14.1726C10.3333 14.3476 10.4583 14.5559 10.7917 14.4892C12.2908 13.9845 13.5617 12.9634 14.3776 11.6083C15.1935 10.2531 15.5013 8.65211 15.2459 7.09105C14.9906 5.52999 14.1888 4.11047 12.9837 3.0859C11.7785 2.06133 10.2485 1.49838 8.66669 1.49756Z" fill="#292F36"/>
</g>
</svg>
